# xmcd CD database file
#
# Track frame offsets:
#	150
#	10184
#	21869
#	30856
#	43566
#	52080
#	63586
#	72264
#	84415
#	95466
#	105203
#	114479
#
# Disc length: 1663 seconds
#
# Revision: 0
# Processed by: cddbd v1.5.2PL0 Copyright (c) Steve Scherf et al.
# Submitted via: CDex 1.51
#
DISCID=8c067d0c
DTITLE=The Jonah Jones Quartet - Swingin' On Broadway
DYEAR=1957
DGENRE=Jazz
TTITLE0=Baubles, Bangles And Beads
TTITLE1=The Party's Over
TTITLE2=You're So Right For Me
TTITLE3=Just My Luck
TTITLE4=The Surrey With The Fringe On Top
TTITLE5=You're Just In Love
TTITLE6=Just In Time
TTITLE7=Hey There
TTITLE8=I Could Have Danced All Night
TTITLE9=Whatever Lola Wants
TTITLE10=Till There Was You
TTITLE11=Seventy-Six Trombones
EXTD=YEAR: 1957
EXTT0=
EXTT1=
EXTT2=
EXTT3=
EXTT4=
EXTT5=
EXTT6=
EXTT7=
EXTT8=
EXTT9=
EXTT10=
EXTT11=
PLAYORDER=
